<?xml version="1.0" encoding="utf-8"?>
<!-- Generator: Adobe Illustrator 26.0.2, SVG Export Plug-In . SVG Version: 6.00 Build 0)  -->
<svg version="1.1" id="Layer_1" xmlns="http://www.w3.org/2000/svg" xmlns:xlink="http://www.w3.org/1999/xlink" x="0px" y="0px"
	 viewBox="0 0 205.2 205.2" style="enable-background:new 0 0 205.2 205.2;" xml:space="preserve">
<style type="text/css">
	.st0{fill:#FFBA00;}
</style>
<g>
	<g>
		<g>
			<path class="st0" d="M56.9,140c-0.6-0.6-0.9-1.6-0.9-2.9v-3.5c0-1.2,0.3-2.2,0.9-2.7c0.6-0.6,1.7-0.9,3.5-0.9H64
				c1.7,0,2.9,0.3,3.5,0.9c0.6,0.6,0.9,1.5,0.9,2.7v3.4h-4.5v-2.4c0-0.4-0.2-0.6-0.5-0.6h-2.1c-0.4,0-0.5,0.2-0.5,0.6v2
				c0,0.5,1,1.2,3,2.3c2,1,3.3,1.9,3.9,2.4c0.6,0.6,0.9,1.6,0.9,2.9v3.4c0,1.2-0.3,2.2-0.9,2.7c-0.6,0.6-1.7,0.9-3.5,0.9h-3.9
				c-1.7,0-2.9-0.3-3.5-0.9c-0.6-0.6-0.9-1.5-0.9-2.7v-3.4h4.6v2.4c0,0.4,0.2,0.6,0.5,0.6h2.1c0.4,0,0.5-0.2,0.5-0.6v-2
				c0-0.4-1-1.1-3-2.1C58.8,141.4,57.5,140.6,56.9,140z"/>
		</g>
		<g>
			<path class="st0" d="M76.4,151.2V130h8.1c1.7,0,2.9,0.3,3.5,0.9c0.6,0.6,0.9,1.5,0.9,2.7v4c0,1.2-0.5,2.2-1.6,2.7
				c-0.3,0.1-0.4,0.2-0.4,0.3c0,0.1,0.2,0.2,0.4,0.3c1.2,0.6,1.8,1.5,1.8,2.7v4c0,1.2-0.3,2.2-0.9,2.7c-0.6,0.6-1.7,0.9-3.5,0.9
				H76.4z M81.2,138.5h2.5c0.4,0,0.5-0.2,0.5-0.6v-3.4c0-0.4-0.2-0.6-0.5-0.6h-2.5V138.5z M81.2,147.2h2.5c0.4,0,0.5-0.2,0.5-0.6
				v-3.4c0-0.4-0.2-0.6-0.5-0.6h-2.5V147.2z"/>
		</g>
		<g>
			<path class="st0" d="M97.3,140c-0.6-0.6-0.9-1.6-0.9-2.9v-3.5c0-1.2,0.3-2.2,0.9-2.7c0.6-0.6,1.7-0.9,3.5-0.9h3.6
				c1.7,0,2.9,0.3,3.5,0.9c0.6,0.6,0.9,1.5,0.9,2.7v3.4h-4.5v-2.4c0-0.4-0.2-0.6-0.5-0.6h-2.1c-0.4,0-0.5,0.2-0.5,0.6v2
				c0,0.5,1,1.2,3,2.3c2,1,3.3,1.9,3.9,2.4c0.6,0.6,0.9,1.6,0.9,2.9v3.4c0,1.2-0.3,2.2-0.9,2.7c-0.6,0.6-1.7,0.9-3.5,0.9h-3.9
				c-1.7,0-2.9-0.3-3.5-0.9c-0.6-0.6-0.9-1.5-0.9-2.7v-3.4h4.6v2.4c0,0.4,0.2,0.6,0.5,0.6h2.1c0.4,0,0.5-0.2,0.5-0.6v-2
				c0-0.4-1-1.1-3-2.1C99.1,141.4,97.8,140.6,97.3,140z"/>
		</g>
		<g>
			<path class="st0" d="M61.3,174.3v8.6h-4.7v-21.3h4.7v8.6h3.1v-8.6h4.7v21.3h-4.7v-8.6H61.3z"/>
		</g>
		<g>
			<path class="st0" d="M77.1,165.3c0-1.2,0.3-2.2,0.9-2.7c0.6-0.6,1.7-0.9,3.5-0.9h3.9c1.7,0,2.9,0.3,3.5,0.9
				c0.6,0.6,0.9,1.5,0.9,2.7v14c0,1.2-0.3,2.2-0.9,2.7c-0.6,0.6-1.7,0.9-3.5,0.9h-3.9c-1.7,0-2.9-0.3-3.5-0.9
				c-0.6-0.6-0.9-1.5-0.9-2.7V165.3z M81.9,178.3c0,0.4,0.2,0.6,0.5,0.6h2c0.4,0,0.5-0.2,0.5-0.6v-12c0-0.4-0.2-0.6-0.5-0.6h-2
				c-0.4,0-0.5,0.2-0.5,0.6V178.3z"/>
		</g>
		<g>
			<path class="st0" d="M105.4,161.7h4.7v17.7c0,1.2-0.3,2.2-0.9,2.7c-0.6,0.6-1.7,0.9-3.5,0.9H102c-1.7,0-2.9-0.3-3.5-0.9
				c-0.6-0.6-0.9-1.5-0.9-2.7v-17.7h4.7v16.6c0,0.4,0.2,0.6,0.5,0.6h2c0.4,0,0.5-0.2,0.5-0.6V161.7z"/>
		</g>
		<g>
			<path class="st0" d="M118.5,171.7c-0.6-0.6-0.9-1.6-0.9-2.9v-3.5c0-1.2,0.3-2.2,0.9-2.7c0.6-0.6,1.7-0.9,3.5-0.9h3.6
				c1.7,0,2.9,0.3,3.5,0.9c0.6,0.6,0.9,1.5,0.9,2.7v3.4h-4.5v-2.4c0-0.4-0.2-0.6-0.5-0.6h-2.1c-0.4,0-0.5,0.2-0.5,0.6v2
				c0,0.5,1,1.2,3,2.3c2,1,3.3,1.9,3.9,2.4c0.6,0.6,0.9,1.6,0.9,2.9v3.4c0,1.2-0.3,2.2-0.9,2.7c-0.6,0.6-1.7,0.9-3.5,0.9h-3.9
				c-1.7,0-2.9-0.3-3.5-0.9c-0.6-0.6-0.9-1.5-0.9-2.7v-3.4h4.6v2.4c0,0.4,0.2,0.6,0.5,0.6h2.1c0.4,0,0.5-0.2,0.5-0.6v-2
				c0-0.4-1-1.1-3-2.1C120.3,173.1,119.1,172.3,118.5,171.7z"/>
		</g>
		<g>
			<path class="st0" d="M148.6,161.7v4.1h-5.9v4.5h5.1v4.1h-5.1v4.5h5.9v4.1H138l0-21.3H148.6z"/>
		</g>
	</g>
	<g>
		<path class="st0" d="M160.8,195.1H44.4V68.2L102.6,10l58.2,58.2V195.1z M50.5,189h104.2V70.8l-52.1-52.1L50.5,70.8V189z"/>
	</g>
</g>
</svg>
